<svg xmlns="http://www.w3.org/2000/svg" viewBox="0 0 24 24">
	<path d="M15 15h3.7v-3H15V9.5c0-.3.1-.6.3-.8a1 1 0 01.8-.3h3v-3h-3.4a4 4 0 00-2.6 1.3A4.1 4.1 0 0012 9.5V12H9l.1 3H12v8.1H3c-.5 0-1-.2-1.4-.5a1.9 1.9 0 01-.5-1.4V3c0-.5.2-1 .5-1.4A1.9 1.9 0 013 1h18.3a1.9 1.9 0 011.9 1.9v18.3c0 .5-.2 1-.5 1.4a1.9 1.9 0 01-1.4.5H15v-8zm6.2 7.3a1 1 0 001-1.1V2.8a1 1 0 00-1-1H2.8a1 1 0 00-1 1v18.4a1 1 0 001 1h8.5v-6.5h-3v-4.4h3V9.4c0-2.4 1.9-4.5 4.3-4.7h4.1V9H16c-.2 0-.3.1-.3.3v1.9h3.6v4.4h-3.6v6.6h5.5z"></path>
</svg>