<svg xmlns="http://www.w3.org/2000/svg" viewBox="0 0 24 24">
	<path stroke-width=".1" d="M16.73.95c3.474 0 6.32 2.846 6.32 6.32v9.46c0 3.474-2.846 6.32-6.32 6.32H7.27c-3.474 0-6.32-2.846-6.32-6.32V7.27C.95 3.796 3.796.95 7.27.95h9.46zm5.487 15.78V7.27c0-3.016-2.471-5.487-5.487-5.487H7.27c-3.016 0-5.487 2.471-5.487 5.487v9.46c0 3.016 2.471 5.487 5.487 5.487h9.46c3.016 0 5.487-2.471 5.487-5.487zM12 6.083c3.254 0 5.917 2.663 5.917 5.917S15.254 17.917 12 17.917 6.083 15.254 6.083 12 8.746 6.083 12 6.083zm0 11A5.097 5.097 0 0017.083 12 5.097 5.097 0 0012 6.917 5.097 5.097 0 006.917 12 5.097 5.097 0 0012 17.083zm5.867-12.1c.65 0 1.15.5 1.15 1.15a1.13 1.13 0 01-1.15 1.15 1.13 1.13 0 01-1.15-1.15c0-.65.499-1.15 1.15-1.15z"></path>
</svg>