<svg xmlns="http://www.w3.org/2000/svg" viewBox="0 0 23.5 17.6">
	<g fill="#fff">
		<path class="st0" d="M8.5 17.5h-.2c-2.3 0-4.5-.6-6.5-1.9l-1.9-1.2 2.2.3c.3 0 .6 0 .9.1 1.3 0 2.6-.3 3.8-1-1.4-.5-2.5-1.6-3-3.1l-.2-.7.4.1C3 9.3 2.4 8 2.3 6.6v-.8l.7.4c-.3-.8-.6-1.7-.6-2.6 0-.8.2-1.6.6-2.3l.4-.6.5.6c1.8 2.2 4.5 3.7 7.4 4v-.4c0-1.3.5-2.5 1.5-3.4 1.8-1.7 4.5-1.6 6.3 0 .8-.2 1.5-.5 2.2-.9l1.1-.6-.4 1.3c-.1.4-.3.8-.6 1.2.2-.1.3-.1.5-.2l1.6-.7-1 1.4c-.5.8-1.2 1.5-1.9 2.1v.4c0 3.2-1.3 6.3-3.6 8.5-2.3 2.3-5.3 3.5-8.5 3.5zm-.1-1c3 0 5.8-1.1 7.9-3.2 2.1-2.1 3.3-4.9 3.3-7.8v-.9l.2-.1c.3-.2.6-.5.8-.7-.3.1-.6.1-.8.1l-2.3.3 2-1.2c.3-.2.6-.4.9-.7-.4.2-.9.3-1.3.4l-.3.1-.2-.2c-1.4-1.5-3.6-1.5-5.1-.2-.7.7-1.1 1.6-1.1 2.6 0 .3 0 .6.1.8l.1.6h-.7c-3.2-.2-6.1-1.6-8.3-3.9-.1.3-.2.7-.2 1.1 0 1.2.6 2.3 1.6 3l1.4.9H4.7c-.4 0-.9-.1-1.3-.2.3 1.3 1.4 2.4 2.8 2.7l2.1.4-2 .6c-.4.1-.8.2-1.2.2.6 1.1 1.8 1.8 3.1 1.8h1.4l-1.1.9c-1.3 1-2.8 1.6-4.3 1.8 1.3.6 2.7.9 4.2.8z"></path>
	</g>
</svg>