<svg xmlns="http://www.w3.org/2000/svg" viewBox="0 0 20 16.25">
	<g fill="#fff">
		<path d="M6.29 16.25A11.6 11.6 0 0017.97 4.58v-.53a8.27 8.27 0 002-2.13 8 8 0 01-2.36.65A4.16 4.16 0 0019.41.3a8.36 8.36 0 01-2.6 1 4.1 4.1 0 00-7.1 2.8 4.17 4.17 0 00.1.94A11.63 11.63 0 011.4.75a4 4 0 00-.56 2.06 4.09 4.09 0 001.83 3.42 4 4 0 01-1.86-.48 4.11 4.11 0 003.29 4 4.32 4.32 0 01-1.08.14 3.87 3.87 0 01-.77-.07 4.09 4.09 0 003.83 2.93 8.27 8.27 0 01-5.1 1.76 7.93 7.93 0 01-1-.06 11.68 11.68 0 006.31 1.8"></path>
	</g>
</svg>